<svg xmlns="http://www.w3.org/2000/svg" width="64" height="64"><path style="stroke:none;fill-rule:nonzero;fill:#ff3f3a;fill-opacity:1" d="M28.152 28.219 10.117 4.656C8.953 3.492 7.497 2.91 6.043 2.91c-1.453 0-2.91.582-4.074 1.746a6.195 6.195 0 0 0 0 8.145L16.227 32 1.969 51.2a6.195 6.195 0 0 0 0 8.144c1.164 1.164 2.62 1.746 4.074 1.746 1.453 0 2.91-.582 4.074-1.746L28.152 35.78c2.035-1.746 2.035-5.234 0-7.562ZM35.84 28.219 53.879 4.656c1.16-1.164 2.617-1.746 4.07-1.746 1.457 0 2.91.582 4.074 1.746a6.195 6.195 0 0 1 0 8.145L47.77 32l14.253 19.2a6.195 6.195 0 0 1 0 8.144c-1.164 1.164-2.617 1.746-4.074 1.746-1.453 0-2.91-.582-4.07-1.746L35.839 35.78c-2.034-1.746-2.034-5.234 0-7.562Zm0 0"/></svg>